<?xml version="1.0" encoding="utf-8"?>
<!-- Generator: Adobe Illustrator 16.0.0, SVG Export Plug-In . SVG Version: 6.00 Build 0)  -->
<!DOCTYPE svg PUBLIC "-//W3C//DTD SVG 1.1//EN" "http://www.w3.org/Graphics/SVG/1.1/DTD/svg11.dtd">
<svg version="1.1" id="Capa_1" xmlns="http://www.w3.org/2000/svg" xmlns:xlink="http://www.w3.org/1999/xlink" x="0px" y="0px"
	 width="197px" height="60.848px" viewBox="0 0 197 60.848" enable-background="new 0 0 197 60.848" xml:space="preserve">
<g>
	<g>
		<rect x="13.088" y="29.402" fill="#FFFFFF" width="4.986" height="4.986"/>
		<rect x="13.088" y="37.289" fill="#FFFFFF" width="4.986" height="4.984"/>
		<rect x="21.446" y="21.51" fill="#FFFFFF" width="4.986" height="4.987"/>
		<rect x="21.446" y="29.402" fill="#FFFFFF" width="4.986" height="4.986"/>
		<rect x="21.446" y="37.289" fill="#FFFFFF" width="4.986" height="4.984"/>
		<path fill="#FFFFFF" d="M51.382,22.228V7.68c0-1.932-1.576-3.507-3.507-3.507H8.477c-1.932,0-3.507,1.576-3.507,3.507v39.396
			c0,1.931,1.576,3.51,3.507,3.51h25.717c2.859,2.288,6.482,3.662,10.433,3.662c9.241,0,16.734-7.487,16.734-16.728
			C61.357,30.691,57.252,24.827,51.382,22.228z M20.171,7.619h15.995v4.133H20.171V7.619z M9.276,15.699h37.793v5.294
			c-0.802-0.12-1.613-0.2-2.447-0.2c-3.681,0-7.075,1.203-9.838,3.219v-2.504H29.8v4.986h2.266
			C29.479,29.439,27.9,33.292,27.9,37.52c0,3.019,0.809,5.845,2.208,8.288H9.276V15.699z M43.088,23.893
			c0-0.851,0.693-1.532,1.534-1.532c0.854,0,1.535,0.681,1.535,1.532c0,0.847-0.682,1.535-1.535,1.535
			C43.784,25.428,43.088,24.74,43.088,23.893z M32.532,37.522c0,0.85-0.684,1.54-1.538,1.54c-0.85,0-1.532-0.69-1.532-1.54
			c0-0.851,0.682-1.529,1.532-1.529C31.845,35.993,32.529,36.671,32.532,37.522z M44.623,52.686c-0.841,0-1.534-0.685-1.534-1.53
			c0-0.85,0.693-1.541,1.534-1.541c0.854,0,1.535,0.688,1.535,1.541C46.158,52.001,45.476,52.686,44.623,52.686z M53.911,30.604
			l-6.42,6.413c0.043,0.196,0.119,0.379,0.119,0.59c0,1.663-1.349,3.014-3.015,3.014c-1.604,0-2.891-1.268-2.978-2.858l-6.82-5.299
			c-0.589-0.46-0.731-1.274-0.302-1.82c0.427-0.55,1.255-0.618,1.845-0.155l6.245,4.859c0.538-0.507,1.252-0.828,2.044-0.828
			c0.524,0,0.992,0.167,1.419,0.404l6.085-6.092c0.568-0.565,1.427-0.621,1.908-0.133C54.526,29.187,54.471,30.037,53.911,30.604z
			 M58.249,39.059c-0.848,0-1.532-0.689-1.532-1.54c0-0.848,0.685-1.53,1.532-1.53c0.85,0,1.541,0.682,1.541,1.53
			C59.79,38.37,59.102,39.059,58.249,39.059z"/>
	</g>
</g>
<g>
	<path fill="#FFFFFF" d="M105.235,13.029c2.611,1.638,4.442,4.407,4.775,7.624c1.064,0.498,2.246,0.784,3.5,0.784
		c4.574,0,8.281-3.708,8.281-8.282c0-4.574-3.708-8.283-8.281-8.283C108.979,4.874,105.304,8.516,105.235,13.029z M99.809,29.987
		c4.574,0,8.282-3.708,8.282-8.282s-3.708-8.282-8.282-8.282s-8.284,3.709-8.284,8.282C91.525,26.279,95.235,29.987,99.809,29.987z
		 M103.321,30.552h-7.026c-5.848,0-10.605,4.757-10.605,10.604v8.594l0.022,0.135l0.592,0.186
		c5.581,1.743,10.429,2.326,14.418,2.326c7.795,0,12.312-2.224,12.591-2.365l0.553-0.279h0.06v-8.596
		C113.926,35.309,109.169,30.552,103.321,30.552z M117.024,22.001h-6.973c-0.076,2.79-1.267,5.302-3.151,7.11
		c5.197,1.545,9.001,6.366,9.001,12.059v2.648c6.885-0.253,10.854-2.204,11.114-2.336l0.552-0.279h0.06v-8.598
		C127.627,26.758,122.871,22.001,117.024,22.001z M85.276,21.438c1.62,0,3.127-0.474,4.405-1.278
		c0.405-2.648,1.825-4.962,3.853-6.537c0.008-0.156,0.023-0.31,0.023-0.465c0-4.576-3.708-8.282-8.28-8.282
		c-4.575,0-8.282,3.707-8.282,8.282C76.994,17.729,80.701,21.438,85.276,21.438z M92.714,29.111
		c-1.875-1.798-3.061-4.297-3.148-7.07c-0.259-0.02-0.514-0.04-0.779-0.04h-7.026c-5.848,0-10.605,4.757-10.605,10.604v8.597
		l0.022,0.132l0.592,0.187c4.477,1.397,8.473,2.042,11.942,2.244V41.17C83.714,35.477,87.515,30.658,92.714,29.111z"/>
</g>
<g>
	<g>
		<path fill="#FFFFFF" d="M149.542,16.837h27.745v-2.092c0-1.724-1.174-3.137-2.602-3.137h-11.452V9.782
			c0-2.601-1.753-4.705-3.9-4.705h-6.659c-1.042,0-2.02,0.489-2.759,1.38c-0.741,0.895-1.144,2.065-1.144,3.324v1.829h-11.452
			c-1.432-0.003-2.601,1.411-2.601,3.134V42.77l8.744-21.371C144.523,18.795,147.142,16.837,149.542,16.837z M151.372,9.782
			c0-0.418,0.14-0.808,0.383-1.108c0.243-0.299,0.572-0.462,0.916-0.462h6.659c0.717,0,1.299,0.703,1.299,1.57v1.829h-9.258V9.782z"
			/>
		<path fill="#FFFFFF" d="M186.91,19.968h-37.368c-1.43,0-3.12,1.268-3.746,2.812l-10.052,24.559
			c-0.631,1.541,0.022,2.809,1.452,2.809h37.368c1.428,0,3.124-1.265,3.751-2.809L188.36,22.78
			C188.993,21.236,188.342,19.968,186.91,19.968z"/>
	</g>
</g>
</svg>
