<?xml version="1.0" encoding="utf-8"?>
<!-- Generator: Adobe Illustrator 16.0.0, SVG Export Plug-In . SVG Version: 6.00 Build 0)  -->
<!DOCTYPE svg PUBLIC "-//W3C//DTD SVG 1.1//EN" "http://www.w3.org/Graphics/SVG/1.1/DTD/svg11.dtd">
<svg version="1.1" id="Capa_1" xmlns="http://www.w3.org/2000/svg" xmlns:xlink="http://www.w3.org/1999/xlink" x="0px" y="0px"
	 width="163.638px" height="38.889px" viewBox="0 0 163.638 38.889" enable-background="new 0 0 163.638 38.889"
	 xml:space="preserve">
<g>
	<g>
		<path fill="#FFFFFF" d="M74.951,10.731c-1.033,0.458-2.14,0.766-3.303,0.906c1.188-0.712,2.097-1.84,2.528-3.18
			c-1.115,0.659-2.345,1.136-3.654,1.397c-1.05-1.12-2.543-1.818-4.2-1.818c-3.176,0-5.752,2.578-5.752,5.751
			c0,0.451,0.05,0.891,0.148,1.311c-4.78-0.239-9.018-2.53-11.855-6.01c-0.496,0.848-0.778,1.836-0.778,2.892
			c0,1.996,1.016,3.757,2.558,4.787c-0.942-0.031-1.83-0.292-2.606-0.722v0.071c0,2.787,1.984,5.111,4.614,5.64
			c-0.482,0.131-0.99,0.203-1.516,0.203c-0.372,0-0.731-0.038-1.083-0.106c0.732,2.286,2.856,3.948,5.372,3.994
			c-1.967,1.541-4.449,2.458-7.144,2.458c-0.465,0-0.922-0.028-1.372-0.08c2.546,1.636,5.569,2.588,8.818,2.588
			c10.582,0,16.365-8.764,16.365-16.366l-0.019-0.745C73.204,12.897,74.181,11.884,74.951,10.731z"/>
	</g>
</g>
<g>
	<path fill="#FFFFFF" d="M27.297,5.764l-3.55-0.005c-3.988,0-6.565,2.644-6.565,6.736v3.106h-3.569c-0.308,0-0.558,0.25-0.558,0.558
		v4.5c0,0.309,0.25,0.559,0.558,0.559h3.569v11.354c0,0.309,0.25,0.559,0.558,0.559h4.657c0.308,0,0.558-0.25,0.558-0.559V21.217
		h4.173c0.309,0,0.559-0.25,0.559-0.559l0.001-4.5c0-0.147-0.059-0.289-0.164-0.395c-0.105-0.104-0.247-0.163-0.395-0.163h-4.174
		v-2.633c0-1.266,0.301-1.908,1.95-1.908l2.391-0.001c0.308,0,0.558-0.25,0.558-0.558V6.322C27.854,6.014,27.604,5.764,27.297,5.764
		z"/>
</g>
<g>
	<path fill="#FFFFFF" d="M151.326,16.12c-1.833,0-3.324,1.491-3.324,3.325c0,1.833,1.492,3.324,3.324,3.324
		c1.834,0,3.326-1.492,3.326-3.324C154.651,17.61,153.16,16.12,151.326,16.12z M151.326,13.626L151.326,13.626
		c3.214,0,5.819,2.605,5.819,5.818c0,3.213-2.605,5.818-5.819,5.818c-3.213,0-5.818-2.605-5.818-5.818
		C145.508,16.231,148.113,13.626,151.326,13.626z M130.547,19.444c0,3.213,2.605,5.818,5.818,5.818c3.213,0,5.818-2.605,5.818-5.818
		c0-3.213-2.605-5.818-5.818-5.818C133.152,13.626,130.547,16.231,130.547,19.444z"/>
</g>
<g>
	<path id="YouTube__x28_alt_x29__1_" fill="#FFFFFF" d="M117.771,13.212c0-2.56-2.074-4.636-4.633-4.636h-21.73
		c-2.558,0-4.632,2.076-4.632,4.636v12.426c0,2.56,2.074,4.634,4.632,4.634h21.73c2.559,0,4.633-2.074,4.633-4.634V13.212z
		 M99.174,24.668V12.995l8.851,5.837L99.174,24.668z"/>
</g>
</svg>
